<svg width="96" height="88" viewBox="0 0 96 88" fill="none" xmlns="http://www.w3.org/2000/svg">
    <path d="M0.965909 44.3182V37.4659C4.89773 37.4659 7.625 36.6818 9.14773 35.1136C10.6705 33.5455 11.4318 31.0114 11.4318 27.5114V19.9773C11.4318 15.7727 12.0114 12.4091 13.1705 9.88636C14.3523 7.34091 15.9886 5.42045 18.0795 4.125C20.1932 2.82954 22.6932 1.96591 25.5795 1.53409C28.4659 1.10227 31.625 0.886362 35.0568 0.886362V11.7273C32.375 11.7273 30.3295 12.0795 28.9205 12.7841C27.5341 13.4659 26.5909 14.5341 26.0909 15.9886C25.5909 17.4205 25.3409 19.2386 25.3409 21.4432V31.3977C25.3409 33.125 25.0227 34.7727 24.3864 36.3409C23.75 37.8864 22.5682 39.2614 20.8409 40.4659C19.1136 41.6477 16.6477 42.5909 13.4432 43.2955C10.2386 43.9773 6.07955 44.3182 0.965909 44.3182ZM35.0568 87.1705C31.625 87.1705 28.4659 86.9545 25.5795 86.5227C22.6932 86.0909 20.1932 85.2273 18.0795 83.9318C15.9886 82.6364 14.3523 80.7159 13.1705 78.1705C12.0114 75.6477 11.4318 72.2841 11.4318 68.0795V60.5114C11.4318 57.0114 10.6705 54.4773 9.14773 52.9091C7.625 51.3409 4.89773 50.5568 0.965909 50.5568V43.7045C6.07955 43.7045 10.2386 44.0568 13.4432 44.7614C16.6477 45.4432 19.1136 46.3864 20.8409 47.5909C22.5682 48.7727 23.75 50.1477 24.3864 51.7159C25.0227 53.2614 25.3409 54.9091 25.3409 56.6591V66.6136C25.3409 68.7955 25.5909 70.6023 26.0909 72.0341C26.5909 73.4886 27.5341 74.5568 28.9205 75.2386C30.3295 75.9432 32.375 76.2955 35.0568 76.2955V87.1705ZM0.965909 50.5568V37.4659H13.2045V50.5568H0.965909ZM95.8068 43.7045V50.5568C91.8977 50.5568 89.1705 51.3409 87.625 52.9091C86.1023 54.4773 85.3409 57.0114 85.3409 60.5114V68.0795C85.3409 72.2841 84.75 75.6477 83.5682 78.1705C82.4091 80.7159 80.7727 82.6364 78.6591 83.9318C76.5682 85.2273 74.0795 86.0909 71.1932 86.5227C68.3295 86.9545 65.1705 87.1705 61.7159 87.1705V76.2955C64.3977 76.2955 66.4318 75.9432 67.8182 75.2386C69.2273 74.5568 70.1818 73.4886 70.6818 72.0341C71.1818 70.6023 71.4318 68.7955 71.4318 66.6136V56.6591C71.4318 54.9091 71.75 53.2614 72.3864 51.7159C73.0227 50.1477 74.2045 48.7727 75.9318 47.5909C77.6591 46.3864 80.125 45.4432 83.3295 44.7614C86.5341 44.0568 90.6932 43.7045 95.8068 43.7045ZM61.7159 0.886362C65.1705 0.886362 68.3295 1.10227 71.1932 1.53409C74.0795 1.96591 76.5682 2.82954 78.6591 4.125C80.7727 5.42045 82.4091 7.34091 83.5682 9.88636C84.75 12.4091 85.3409 15.7727 85.3409 19.9773V27.5114C85.3409 31.0114 86.1023 33.5455 87.625 35.1136C89.1705 36.6818 91.8977 37.4659 95.8068 37.4659V44.3182C90.6932 44.3182 86.5341 43.9773 83.3295 43.2955C80.125 42.5909 77.6591 41.6477 75.9318 40.4659C74.2045 39.2614 73.0227 37.8864 72.3864 36.3409C71.75 34.7727 71.4318 33.125 71.4318 31.3977V21.4432C71.4318 19.2386 71.1818 17.4205 70.6818 15.9886C70.1818 14.5341 69.2273 13.4659 67.8182 12.7841C66.4318 12.0795 64.3977 11.7273 61.7159 11.7273V0.886362ZM95.8068 37.4659V50.5568H83.5682V37.4659H95.8068Z" fill="white"/>
    <style>
        path { fill: #000; }
        @media (prefers-color-scheme: dark) {
            path { fill: #FFF; }
        }
    </style>
</svg>

